<svg width="589" height="553" viewBox="0 0 589 553" fill="none" xmlns="http://www.w3.org/2000/svg">
<path d="M402.022 283.723C386.805 255.129 344.833 258.299 334.117 288.862C300.27 385.418 225.783 481.975 92.0247 134.38C81.3513 106.649 44.0933 101.977 26.9506 126.24L6.82111 154.722C-1.29015 166.188 -2.23859 181.25 4.358 193.65L184.858 533.021C197.867 557.468 232.068 559.633 248.05 537.027L399.559 322.652C407.67 311.185 408.619 296.124 402.022 283.723Z" fill="#E78724"/>
<path d="M185.298 244.555L186.728 247.541C200.558 276.447 241.978 275.457 254.506 245.97C293.095 155.175 372.99 70.5517 494.998 430.845C504.27 458.236 539.957 464.946 558.615 442.849L579.523 418.076C588.95 406.893 590.96 391.237 584.647 378.043L413.843 21.1338C402.193 -3.21413 369.295 -7.41836 351.884 13.2066L190.437 204.536C181.009 215.719 178.999 231.376 185.313 244.569L185.298 244.555Z" fill="#E78724"/>
</svg>
